<?xml version="1.0" encoding="UTF-8"?>
<!DOCTYPE svg PUBLIC "-//W3C//DTD SVG 1.1//EN" "http://www.w3.org/Graphics/SVG/1.1/DTD/svg11.dtd">
<svg version="1.1" class="svg-paths svg-trolley" viewBox="0 0 835 1570" preserveAspectRatio="xMinYMin meet">
	<path data-part="stiching" fill="#787878" class="svg-path svg-stiching" d="M184.5,340c0,0,3.414-18.68,98.414-19.68c0,0,48.586-28.32,83.586-49.32c0,0,50-13,90-7c0,0,30-1,63,19
		c0,0,41,19.418,57,18.209c0,0,91,5.791,96,18.791c0,0,35,3,53,96l3,886c0,0,11,140-96,147h-27c0,0-5,5-14,6h-69c0,0-10-10-17-11
		l-2-5c0,0,89,25,93-45c0,0,14-21,11-154l1-318l-6-510c0,0-3-89-73-97L184.5,340z"/>
	<path fill="#787878" class="svg-path" d="M809.5,1312c0,0-35,4-92,86c0,0-22,8-17,25s34,57,64,57c6,11,64.867-22.619,13-58c0,0-8-15.877-3-24.938
		C774.5,1397.062,821.5,1345,809.5,1312z"/>
	<path fill="#787878" class="svg-path" d="M409.5,1434l-35-5c0,0-53-37,25-77h114c0,0,80,14,45,71c0,0-12,28-55,16l-5-3c0,0-21,6-7,19c0,0,29,29,15,56
		c0,0-21,28-54,0C452.5,1511,417.5,1500,409.5,1434z"/>
	<path fill="#787878" class="svg-path" d="M129.5,1383c0,0-25-19-45-77c0,0-20-19-47-22c0,0,6,42,27,84l6,5c0,0-15,35,36,73c0,0,14,21.445,33-8.277
		c0,0,10-10.723,0-32.723S129.5,1383,129.5,1383z"/>
	<path data-part="case" fill="#D3D3D3" class="svg-path svg-case" d="M179.5,343c0,0-103-15-108,139.724c0,0-13,82.276-18,157.276s-12,286-12,286s-8,346,0,358
		c0,0,7.393-8.221,38.696,18.39S99.5,1371,134.5,1379l27,11l213,39c0,0-48-31,25-77h114c0,0,62.184,4.727,49.592,62.363
		c0,0-4.592,31.637-59.592,24.637c0,0,56.594,18.494,78.797-10.253c0,0,22.909-22.669,24.2-97.69l-3.044-838.044
		c0,0,9.475-166.433-57.239-174.223c0,0,1.161-9.52-142.776,5.345L179.5,343z"/>
	<path data-part="case" fill="#D3D3D3" class="svg-path svg-case" d="M691.351,332.136c0,0,114.149-9.136,105.149,209.864c0,0,22,332,16,375c0,0,2.212,382.631-3,395
		c-29,0-78,76-102.18,91.966c0,0,29.82-17.966,21.5-180.966V978l-3.11-499.997C725.71,478.003,731.552,353.709,691.351,332.136z"/>
</svg>
