<?xml version="1.0" encoding="UTF-8"?>
<!DOCTYPE svg PUBLIC "-//W3C//DTD SVG 1.1//EN" "http://www.w3.org/Graphics/SVG/1.1/DTD/svg11.dtd">
<svg version="1.1" class="svg-paths svg-trolley" viewBox="0 0 835 1570" preserveAspectRatio="xMinYMin meet">
	<path data-part="wheel" fill="#020202" class="svg-path svg-wheel" d="M772.864,1403.966c0,0,50.636,3.034,38.597,57.034c0.039,11-37.961,58-78.249,6.107
		c0,0,33.159,28.838,56.262,4.865c0,0,23.095-25.365-7.439-46.669C782.034,1425.304,771.229,1410.87,772.864,1403.966z"/>
	<path data-part="wheel" class="svg-path svg-wheel" d="M486.758,1447.505c0,0,1.742-14.505,18.742-3.505c0,0,33,18.09,28,47.045c0,0-1,27.955-28,38.955c0,0-40,13-53-19
		c0,0,32.172,29.633,55.787-4.075C508.287,1506.925,521.016,1485.01,486.758,1447.505z"/>
	<path data-part="wheel" fill="#020202" class="svg-path svg-wheel" d="M111.5,1380c0,0,23,28,22,43c0,0,12,32-22,32c-7-7,31,31.445,58-17.277c0,0,10-24.723-8-47.723L111.5,1380z"/>
</svg>
