<?xml version="1.0" encoding="UTF-8"?>
<!DOCTYPE svg PUBLIC "-//W3C//DTD SVG 1.1//EN" "http://www.w3.org/Graphics/SVG/1.1/DTD/svg11.dtd">
<svg version="1.1" class="svg-paths svg-trolley" viewBox="0 0 835 1570" preserveAspectRatio="xMinYMin meet">
	<path data-part="stiching" fill="#787878" class="svg-path svg-stiching" d="M184.5,340c0,0,3.414-18.68,98.414-19.68c0,0,48.586-28.32,83.586-49.32c0,0,50-13,90-7c0,0,30-1,63,19
		c0,0,41,19.418,57,18.209c0,0,91,5.791,96,18.791c0,0,35,3,53,96l3,886c0,0,11,140-96,147h-27c0,0-5,5-14,6h-69c0,0-10-10-17-11
		l-2-5c0,0,89,25,93-45c0,0,14-21,11-154l1-318l-6-510c0,0-3-89-73-97L184.5,340z"/>
</svg>
